# xmcd
#
# Track frame offsets:
# 150
# 13210
# 25687
# 39172
# 54642
# 69900
# 84132
# 103800
# 119160
# 133572
# 147070
# 161430
# 174117
# 185252
# 200430
# 216202
#
# Disc length: 3129 seconds
#
#
# Revision: 0
# Processed by: cddbd v1.4PL0 Copyright (c) Steve Scherf et al.
# Submitted via: FreeRIP 2.35 
#
DISCID=d00c3710
DTITLE=Tapio Heinonen - 16 suomalaista kestosuosikkia
DYEAR=1998
DGENRE=
TTITLE0=Vanha tie
TTITLE1=Tieni länteen toi
TTITLE2=Sotilaan paluu
TTITLE3=Kuusamo
TTITLE4=Sä muistatko metsätien
TTITLE5=Sulle jokainen päivä tuon vuokon
TTITLE6=Kulta-aikaan
TTITLE7=Tuo onneton
TTITLE8=Lapsuutein luo
TTITLE9=Luonnonlapsi
TTITLE10=Sen verran mustalaista
TTITLE11=Auringon lapset
TTITLE12=Hän
TTITLE13=Sua niin rakastin
TTITLE14=Rakovalkealla
TTITLE15=Kuolleet lehdet
EXTD=
EXTT0=
EXTT1=
EXTT2=
EXTT3=
EXTT4=
EXTT5=
EXTT6=
EXTT7=
EXTT8=
EXTT9=
EXTT10=
EXTT11=
EXTT12=
EXTT13=
EXTT14=
EXTT15=
PLAYORDER=
